<svg width="632" height="506" viewBox="0 0 632 506" fill="none" xmlns="http://www.w3.org/2000/svg">
<g clip-path="url(#clip0)">
<path fill-rule="evenodd" clip-rule="evenodd" d="M518.693 188.431H542.417C589.866 188.431 628.387 150.123 628.387 102.938C628.387 55.7569 589.866 17.4484 542.417 17.4484C494.969 17.4484 456.446 55.7569 456.446 102.938V126.531C456.211 160.635 484.163 188.431 518.693 188.431Z" fill="black"/>
<path fill-rule="evenodd" clip-rule="evenodd" d="M109.693 188.431H85.9691C38.5206 188.431 0 150.123 0 102.938C0 55.7569 38.5206 17.4484 85.9691 17.4484C133.418 17.4484 171.941 55.7569 171.941 102.938V126.531C172.175 160.635 144.223 188.431 109.693 188.431Z" fill="black"/>
<path fill-rule="evenodd" clip-rule="evenodd" d="M437.421 465.228C359.201 500.499 268.3 501.2 189.61 467.095L182.798 464.061C103.404 429.957 52.6666 355.91 52.6666 274.857V255.003C52.6666 123.963 167.295 17.4484 308.466 17.4484C449.635 17.4484 564.263 123.729 564.263 255.003V277.194C564.263 357.313 514.934 430.423 437.421 465.228Z" fill="white"/>
<path fill-rule="evenodd" clip-rule="evenodd" d="M430.025 434.905L430.005 434.915C356.096 468.366 271.087 469.008 196.908 436.741L190.015 433.657C117.109 402.222 66.5 345.666 66.5 271L66.5 298.5C77.5 364 117.109 421.742 190.015 453.176L196.908 456.26C271.087 488.527 356.096 487.885 430.005 454.435L430.025 454.425C501.085 422.398 547 354.258 547 280.832V261.313C547 334.739 501.085 402.879 430.025 434.905Z" fill="#E6E6E6"/>
<path fill-rule="evenodd" clip-rule="evenodd" d="M95.655 163.164L95.6664 163.145C139.981 95.1916 211.301 48.9266 291.192 36.2298L298.661 35.1218C377.031 22.408 450.115 42.8654 490.276 105.811L475.485 82.6278C430.981 33.3261 366.532 5.95285 288.162 18.6666L280.693 19.7746C200.803 32.4714 129.482 78.7364 85.1676 146.69L85.1562 146.709C42.4769 211.929 40.4197 294.07 79.9131 355.969L90.4119 372.424C50.9185 310.525 52.9757 228.384 95.655 163.164Z" fill="#E6E6E6"/>
<path d="M428.641 449.11C354.272 482.645 267.8 483.301 193.015 450.889L187.023 464.5L193.154 450.95L186.341 447.915L186.158 447.835C112.247 416.086 65.0484 347.389 65.0484 272.262V252.408C65.0484 129.776 172.785 29.7061 305.879 29.7061C439.061 29.7061 546.708 129.626 546.708 252.408V274.599C546.708 348.777 500.914 416.659 428.663 449.101L428.641 449.11ZM441.005 476.165C523.792 438.992 576.645 360.647 576.645 274.599V252.408C576.645 112.761 455.164 0 305.879 0C156.677 0 35.1111 112.915 35.1111 252.408V272.262C35.1111 359.44 89.5815 438.72 174.264 475.096L180.211 461.465L174.081 475.016L180.893 478.05L181.032 478.111C263.601 513.897 358.931 513.174 441.027 476.155L441.005 476.165Z" fill="black"/>
<path fill-rule="evenodd" clip-rule="evenodd" d="M341.249 335.61L318.523 349.765C311.531 353.987 302.79 353.987 296.048 349.765L273.322 335.61C267.079 331.636 263.333 324.931 263.333 317.729C263.333 306.058 272.823 296.621 284.56 296.621H330.011C341.748 296.621 351.238 306.058 351.238 317.729C351.238 324.931 347.492 331.885 341.249 335.61Z" fill="black"/>
<path fill-rule="evenodd" clip-rule="evenodd" d="M180.904 188.894C189.802 174.686 206.684 170.226 218.611 178.935C230.538 187.642 232.992 206.22 224.097 220.428C215.199 234.635 198.318 239.093 186.391 230.386C174.464 221.679 172.006 203.101 180.904 188.894Z" fill="white"/>
<path fill-rule="evenodd" clip-rule="evenodd" d="M434.763 188.894C425.865 174.686 408.983 170.226 397.056 178.935C385.129 187.642 382.674 206.22 391.57 220.428C400.467 234.635 417.349 239.093 429.276 230.386C441.203 221.679 443.661 203.101 434.763 188.894Z" fill="white"/>
<circle cx="402.5" cy="211.5" r="57.5" fill="black"/>
<circle cx="385.5" cy="201.5" r="20.5" fill="white"/>
<circle cx="222.5" cy="211.5" r="57.5" fill="black"/>
<circle cx="239.5" cy="201.5" r="20.5" fill="white"/>
<path d="M251.031 357.215C249.493 352.78 244.65 350.431 240.215 351.969C235.78 353.507 233.431 358.35 234.969 362.785L251.031 357.215ZM358.629 402.583C363.093 401.132 365.535 396.336 364.083 391.871C362.632 387.407 357.836 384.965 353.371 386.417L358.629 402.583ZM234.969 362.785C239.736 376.53 254.844 391.622 275.892 400.658C297.394 409.889 325.898 413.227 358.629 402.583L353.371 386.417C324.602 395.773 300.35 392.657 282.599 385.037C264.394 377.221 253.752 365.063 251.031 357.215L234.969 362.785Z" fill="black"/>
</g>
<defs>
<clipPath id="clip0">
<rect width="632" height="506" fill="white"/>
</clipPath>
</defs>
</svg>
